<mxfile host="app.diagrams.net" agent="Mozilla/5.0 (Windows NT 10.0; Win64; x64) AppleWebKit/537.36 (KHTML, like Gecko) Chrome/128.0.0.0 Safari/537.36 Edg/128.0.0.0" version="24.7.17">
  <diagram name="第 1 页" id="_pvCDaWZoxReVYvZeunP">
    <mxGraphModel dx="1489" dy="819" grid="1" gridSize="10" guides="1" tooltips="1" connect="1" arrows="1" fold="1" page="1" pageScale="1" pageWidth="827" pageHeight="1169" math="0" shadow="0">
      <root>
        <mxCell id="0" />
        <mxCell id="1" parent="0" />
        <mxCell id="ax4Df50NeEjeW72cWsPZ-9" style="edgeStyle=orthogonalEdgeStyle;rounded=0;orthogonalLoop=1;jettySize=auto;html=1;exitX=1;exitY=0.5;exitDx=0;exitDy=0;entryX=0;entryY=0.5;entryDx=0;entryDy=0;fontColor=default;" parent="1" source="-6CV_cl3STBcPkpSoOHj-21" target="ax4Df50NeEjeW72cWsPZ-8" edge="1">
          <mxGeometry relative="1" as="geometry" />
        </mxCell>
        <mxCell id="ax4Df50NeEjeW72cWsPZ-12" value="" style="edgeStyle=orthogonalEdgeStyle;rounded=0;orthogonalLoop=1;jettySize=auto;html=1;fontColor=default;entryX=0.5;entryY=0;entryDx=0;entryDy=0;" parent="1" source="-6CV_cl3STBcPkpSoOHj-21" target="-6CV_cl3STBcPkpSoOHj-41" edge="1">
          <mxGeometry relative="1" as="geometry">
            <mxPoint x="205" y="156" as="targetPoint" />
          </mxGeometry>
        </mxCell>
        <mxCell id="-6CV_cl3STBcPkpSoOHj-21" value="&lt;div style=&quot;background-color: rgb(255, 255, 255); font-family: Consolas, &amp;quot;Courier New&amp;quot;, monospace; font-size: 14px; line-height: 19px; white-space: pre;&quot;&gt;&lt;div style=&quot;line-height: 19px;&quot;&gt;&lt;div style=&quot;line-height: 19px;&quot;&gt;&lt;span style=&quot;&quot;&gt;ExDigitalInputProcess&lt;/span&gt;&lt;span class=&quot;fluent-read-loading&quot;&gt;&lt;/span&gt;&lt;/div&gt;&lt;/div&gt;&lt;/div&gt;" style="rounded=1;whiteSpace=wrap;html=1;fontColor=default;strokeColor=default;" parent="1" vertex="1">
          <mxGeometry x="90" y="70" width="230" height="50" as="geometry" />
        </mxCell>
        <mxCell id="ax4Df50NeEjeW72cWsPZ-3" value="" style="edgeStyle=orthogonalEdgeStyle;rounded=0;orthogonalLoop=1;jettySize=auto;html=1;fontColor=default;" parent="1" source="-6CV_cl3STBcPkpSoOHj-41" target="-6CV_cl3STBcPkpSoOHj-43" edge="1">
          <mxGeometry relative="1" as="geometry" />
        </mxCell>
        <mxCell id="ax4Df50NeEjeW72cWsPZ-21" value="" style="edgeStyle=orthogonalEdgeStyle;rounded=0;orthogonalLoop=1;jettySize=auto;html=1;fontColor=default;" parent="1" source="-6CV_cl3STBcPkpSoOHj-41" target="ax4Df50NeEjeW72cWsPZ-20" edge="1">
          <mxGeometry relative="1" as="geometry" />
        </mxCell>
        <mxCell id="-6CV_cl3STBcPkpSoOHj-41" value="&lt;div style=&quot;background-color: rgb(255, 255, 255); font-family: Consolas, &amp;quot;Courier New&amp;quot;, monospace; font-size: 14px; line-height: 19px; white-space: pre;&quot;&gt;&lt;div style=&quot;line-height: 19px;&quot;&gt;&lt;div style=&quot;line-height: 19px;&quot;&gt;&lt;div style=&quot;line-height: 19px;&quot;&gt;&lt;span style=&quot;&quot;&gt;ex_digital_collect&lt;/span&gt;&lt;/div&gt;&lt;/div&gt;&lt;/div&gt;&lt;/div&gt;" style="rounded=1;whiteSpace=wrap;html=1;fontColor=default;strokeColor=default;" parent="1" vertex="1">
          <mxGeometry x="90" y="170" width="230" height="50" as="geometry" />
        </mxCell>
        <mxCell id="ax4Df50NeEjeW72cWsPZ-5" value="" style="edgeStyle=orthogonalEdgeStyle;rounded=0;orthogonalLoop=1;jettySize=auto;html=1;fontColor=default;" parent="1" source="-6CV_cl3STBcPkpSoOHj-42" target="-6CV_cl3STBcPkpSoOHj-44" edge="1">
          <mxGeometry relative="1" as="geometry" />
        </mxCell>
        <mxCell id="ax4Df50NeEjeW72cWsPZ-32" style="edgeStyle=orthogonalEdgeStyle;rounded=0;orthogonalLoop=1;jettySize=auto;html=1;exitX=1;exitY=0.5;exitDx=0;exitDy=0;entryX=0;entryY=0.5;entryDx=0;entryDy=0;fontColor=default;" parent="1" source="-6CV_cl3STBcPkpSoOHj-42" target="ax4Df50NeEjeW72cWsPZ-26" edge="1">
          <mxGeometry relative="1" as="geometry" />
        </mxCell>
        <mxCell id="ax4Df50NeEjeW72cWsPZ-33" style="edgeStyle=orthogonalEdgeStyle;rounded=0;orthogonalLoop=1;jettySize=auto;html=1;entryX=0;entryY=0.5;entryDx=0;entryDy=0;fontColor=default;" parent="1" source="-6CV_cl3STBcPkpSoOHj-42" target="ax4Df50NeEjeW72cWsPZ-28" edge="1">
          <mxGeometry relative="1" as="geometry" />
        </mxCell>
        <mxCell id="-6CV_cl3STBcPkpSoOHj-42" value="&lt;div style=&quot;background-color: rgb(255, 255, 255); font-family: Consolas, &amp;quot;Courier New&amp;quot;, monospace; font-weight: normal; font-size: 14px; line-height: 19px; white-space: pre;&quot;&gt;&lt;div&gt;&lt;span style=&quot;&quot;&gt;update_logic_input_status&lt;/span&gt;&lt;/div&gt;&lt;/div&gt;" style="rounded=1;whiteSpace=wrap;html=1;fontColor=default;strokeColor=default;" parent="1" vertex="1">
          <mxGeometry x="90" y="518.5" width="230" height="46" as="geometry" />
        </mxCell>
        <mxCell id="ax4Df50NeEjeW72cWsPZ-4" value="" style="edgeStyle=orthogonalEdgeStyle;rounded=0;orthogonalLoop=1;jettySize=auto;html=1;fontColor=default;" parent="1" source="-6CV_cl3STBcPkpSoOHj-43" target="-6CV_cl3STBcPkpSoOHj-42" edge="1">
          <mxGeometry relative="1" as="geometry" />
        </mxCell>
        <mxCell id="ax4Df50NeEjeW72cWsPZ-25" value="" style="edgeStyle=orthogonalEdgeStyle;rounded=0;orthogonalLoop=1;jettySize=auto;html=1;fontColor=default;" parent="1" source="-6CV_cl3STBcPkpSoOHj-43" target="ax4Df50NeEjeW72cWsPZ-24" edge="1">
          <mxGeometry relative="1" as="geometry" />
        </mxCell>
        <mxCell id="-6CV_cl3STBcPkpSoOHj-43" value="&lt;div style=&quot;background-color: rgb(255, 255, 255); font-family: Consolas, &amp;quot;Courier New&amp;quot;, monospace; font-weight: normal; font-size: 14px; line-height: 19px; white-space: pre;&quot;&gt;&lt;div&gt;&lt;span style=&quot;&quot;&gt;update_air_ground_status&lt;/span&gt;&lt;/div&gt;&lt;/div&gt;" style="rounded=1;whiteSpace=wrap;html=1;fontColor=default;strokeColor=default;" parent="1" vertex="1">
          <mxGeometry x="90" y="319.88" width="230" height="43" as="geometry" />
        </mxCell>
        <mxCell id="ax4Df50NeEjeW72cWsPZ-6" value="" style="edgeStyle=orthogonalEdgeStyle;rounded=0;orthogonalLoop=1;jettySize=auto;html=1;fontColor=default;" parent="1" source="-6CV_cl3STBcPkpSoOHj-44" target="-6CV_cl3STBcPkpSoOHj-46" edge="1">
          <mxGeometry relative="1" as="geometry" />
        </mxCell>
        <mxCell id="ax4Df50NeEjeW72cWsPZ-37" value="" style="edgeStyle=orthogonalEdgeStyle;rounded=0;orthogonalLoop=1;jettySize=auto;html=1;fontColor=default;" parent="1" source="-6CV_cl3STBcPkpSoOHj-44" target="ax4Df50NeEjeW72cWsPZ-36" edge="1">
          <mxGeometry relative="1" as="geometry" />
        </mxCell>
        <mxCell id="-6CV_cl3STBcPkpSoOHj-44" value="&lt;div style=&quot;background-color: rgb(255, 255, 255); font-family: Consolas, &amp;quot;Courier New&amp;quot;, monospace; font-weight: normal; font-size: 14px; line-height: 19px; white-space: pre;&quot;&gt;&lt;div&gt;&lt;span style=&quot;&quot;&gt;update_power_output_loopback&lt;/span&gt;&lt;/div&gt;&lt;/div&gt;" style="rounded=1;whiteSpace=wrap;html=1;fontColor=default;strokeColor=default;" parent="1" vertex="1">
          <mxGeometry x="90" y="690" width="230" height="49" as="geometry" />
        </mxCell>
        <mxCell id="ax4Df50NeEjeW72cWsPZ-7" value="" style="edgeStyle=orthogonalEdgeStyle;rounded=0;orthogonalLoop=1;jettySize=auto;html=1;fontColor=default;" parent="1" source="-6CV_cl3STBcPkpSoOHj-46" target="-6CV_cl3STBcPkpSoOHj-47" edge="1">
          <mxGeometry relative="1" as="geometry" />
        </mxCell>
        <mxCell id="ax4Df50NeEjeW72cWsPZ-42" value="" style="edgeStyle=orthogonalEdgeStyle;rounded=0;orthogonalLoop=1;jettySize=auto;html=1;fontColor=default;" parent="1" source="-6CV_cl3STBcPkpSoOHj-46" target="ax4Df50NeEjeW72cWsPZ-41" edge="1">
          <mxGeometry relative="1" as="geometry" />
        </mxCell>
        <mxCell id="-6CV_cl3STBcPkpSoOHj-46" value="&lt;div style=&quot;background-color: rgb(255, 255, 255); font-family: Consolas, &amp;quot;Courier New&amp;quot;, monospace; font-size: 14px; line-height: 19px; white-space: pre;&quot;&gt;&lt;span style=&quot;&quot;&gt;update_output_status&lt;/span&gt;&lt;span class=&quot;fluent-read-loading&quot;&gt;&lt;/span&gt;&lt;/div&gt;" style="rounded=1;whiteSpace=wrap;html=1;fontColor=default;strokeColor=default;" parent="1" vertex="1">
          <mxGeometry x="90" y="820" width="230" height="47" as="geometry" />
        </mxCell>
        <mxCell id="ax4Df50NeEjeW72cWsPZ-47" style="edgeStyle=orthogonalEdgeStyle;rounded=0;orthogonalLoop=1;jettySize=auto;html=1;entryX=0.5;entryY=0;entryDx=0;entryDy=0;fontColor=default;" parent="1" source="-6CV_cl3STBcPkpSoOHj-47" target="ax4Df50NeEjeW72cWsPZ-10" edge="1">
          <mxGeometry relative="1" as="geometry" />
        </mxCell>
        <mxCell id="ax4Df50NeEjeW72cWsPZ-48" value="" style="edgeStyle=orthogonalEdgeStyle;rounded=0;orthogonalLoop=1;jettySize=auto;html=1;fontColor=default;" parent="1" source="-6CV_cl3STBcPkpSoOHj-47" target="ax4Df50NeEjeW72cWsPZ-43" edge="1">
          <mxGeometry relative="1" as="geometry" />
        </mxCell>
        <mxCell id="-6CV_cl3STBcPkpSoOHj-47" value="&lt;div style=&quot;background-color: rgb(255, 255, 255); font-family: Consolas, &amp;quot;Courier New&amp;quot;, monospace; font-size: 14px; line-height: 19px; white-space: pre; -webkit-line-clamp: unset; max-height: unset;&quot;&gt;update_loopback_fault&lt;/div&gt;" style="rounded=1;whiteSpace=wrap;html=1;fontColor=default;strokeColor=default;" parent="1" vertex="1">
          <mxGeometry x="90" y="980" width="230" height="45" as="geometry" />
        </mxCell>
        <mxCell id="ax4Df50NeEjeW72cWsPZ-8" value="&lt;div style=&quot;background-color: rgb(255, 255, 255); font-family: Consolas, &amp;quot;Courier New&amp;quot;, monospace; font-size: 14px; line-height: 19px; white-space: pre;&quot;&gt;&lt;span style=&quot;&quot;&gt;影响条件&lt;/span&gt;&lt;/div&gt;&lt;div style=&quot;background-color: rgb(255, 255, 255); font-family: Consolas, &amp;quot;Courier New&amp;quot;, monospace; font-size: 14px; line-height: 19px; white-space: pre;&quot;&gt;&lt;span style=&quot;&quot;&gt;msbspa_timeout_counts=1&lt;/span&gt;&lt;/div&gt;" style="rounded=1;whiteSpace=wrap;html=1;fontColor=default;" parent="1" vertex="1">
          <mxGeometry x="380" y="64.5" width="370" height="60" as="geometry" />
        </mxCell>
        <mxCell id="ax4Df50NeEjeW72cWsPZ-18" value="" style="edgeStyle=orthogonalEdgeStyle;rounded=0;orthogonalLoop=1;jettySize=auto;html=1;fontColor=default;" parent="1" source="ax4Df50NeEjeW72cWsPZ-10" target="ax4Df50NeEjeW72cWsPZ-15" edge="1">
          <mxGeometry relative="1" as="geometry" />
        </mxCell>
        <mxCell id="ax4Df50NeEjeW72cWsPZ-52" value="" style="edgeStyle=orthogonalEdgeStyle;rounded=0;orthogonalLoop=1;jettySize=auto;html=1;fontColor=default;" parent="1" source="ax4Df50NeEjeW72cWsPZ-10" target="ax4Df50NeEjeW72cWsPZ-51" edge="1">
          <mxGeometry relative="1" as="geometry" />
        </mxCell>
        <mxCell id="ax4Df50NeEjeW72cWsPZ-10" value="&lt;div style=&quot;background-color: rgb(255, 255, 255); font-family: Consolas, &amp;quot;Courier New&amp;quot;, monospace; font-size: 14px; line-height: 19px; white-space: pre; -webkit-line-clamp: unset; max-height: unset;&quot;&gt;&lt;div style=&quot;line-height: 19px;&quot;&gt;&lt;span style=&quot;&quot;&gt;update_output_fault&lt;/span&gt;&lt;/div&gt;&lt;/div&gt;" style="rounded=1;whiteSpace=wrap;html=1;fontColor=default;strokeColor=default;" parent="1" vertex="1">
          <mxGeometry x="90" y="1145" width="230" height="45" as="geometry" />
        </mxCell>
        <mxCell id="ax4Df50NeEjeW72cWsPZ-46" style="edgeStyle=orthogonalEdgeStyle;rounded=0;orthogonalLoop=1;jettySize=auto;html=1;entryX=0;entryY=0.5;entryDx=0;entryDy=0;fontColor=default;" parent="1" source="ax4Df50NeEjeW72cWsPZ-15" target="ax4Df50NeEjeW72cWsPZ-45" edge="1">
          <mxGeometry relative="1" as="geometry" />
        </mxCell>
        <mxCell id="ax4Df50NeEjeW72cWsPZ-15" value="&lt;div style=&quot;background-color: rgb(255, 255, 255); font-family: Consolas, &amp;quot;Courier New&amp;quot;, monospace; font-size: 14px; line-height: 19px; white-space: pre; -webkit-line-clamp: unset; max-height: unset;&quot;&gt;&lt;div style=&quot;line-height: 19px;&quot;&gt;&lt;div style=&quot;line-height: 19px;&quot;&gt;&lt;span style=&quot;&quot;&gt;InitMcbspaGpio&lt;/span&gt;&lt;/div&gt;&lt;div style=&quot;line-height: 19px;&quot;&gt;&lt;div style=&quot;line-height: 19px;&quot;&gt;&lt;span style=&quot;&quot;&gt;InitMcbspa&lt;/span&gt;&lt;/div&gt;&lt;/div&gt;&lt;/div&gt;&lt;/div&gt;" style="rounded=1;whiteSpace=wrap;html=1;fontColor=default;strokeColor=default;" parent="1" vertex="1">
          <mxGeometry x="90" y="1275" width="230" height="45" as="geometry" />
        </mxCell>
        <mxCell id="ax4Df50NeEjeW72cWsPZ-23" value="" style="edgeStyle=orthogonalEdgeStyle;rounded=0;orthogonalLoop=1;jettySize=auto;html=1;fontColor=default;" parent="1" source="ax4Df50NeEjeW72cWsPZ-20" target="ax4Df50NeEjeW72cWsPZ-22" edge="1">
          <mxGeometry relative="1" as="geometry" />
        </mxCell>
        <mxCell id="ax4Df50NeEjeW72cWsPZ-20" value="&lt;div style=&quot;background-color: rgb(255, 255, 255); font-family: Consolas, &amp;quot;Courier New&amp;quot;, monospace; font-size: 14px; line-height: 19px; white-space: pre;&quot;&gt;&lt;span style=&quot;&quot;&gt;update_ex_digital_status&lt;/span&gt;&lt;/div&gt;" style="rounded=1;whiteSpace=wrap;html=1;fontColor=default;" parent="1" vertex="1">
          <mxGeometry x="380" y="167" width="370" height="55" as="geometry" />
        </mxCell>
        <mxCell id="ax4Df50NeEjeW72cWsPZ-22" value="无影响（无特殊分支）" style="rounded=1;whiteSpace=wrap;html=1;fontColor=default;" parent="1" vertex="1">
          <mxGeometry x="827" y="165" width="140" height="60" as="geometry" />
        </mxCell>
        <mxCell id="ax4Df50NeEjeW72cWsPZ-24" value="&lt;div style=&quot;background-color: rgb(255, 255, 255); font-family: Consolas, &amp;quot;Courier New&amp;quot;, monospace; font-size: 14px; line-height: 19px; white-space: pre;&quot;&gt;&lt;span style=&quot;font-family: Helvetica; font-size: 12px; white-space: normal; background-color: rgb(251, 251, 251);&quot;&gt;最差执行时间路径条件&lt;/span&gt;&lt;span style=&quot;&quot;&gt;&lt;br&gt;&lt;/span&gt;&lt;/div&gt;&lt;div style=&quot;background-color: rgb(255, 255, 255); font-family: Consolas, &amp;quot;Courier New&amp;quot;, monospace; font-size: 14px; line-height: 19px; white-space: pre;&quot;&gt;&lt;div style=&quot;line-height: 19px;&quot;&gt;&lt;span style=&quot;&quot;&gt;cbit&lt;/span&gt;.&lt;span style=&quot;&quot;&gt;bits&lt;/span&gt;.&lt;span style=&quot;&quot;&gt;cana=1&lt;/span&gt;&lt;/div&gt;&lt;div style=&quot;line-height: 19px;&quot;&gt;&lt;div style=&quot;line-height: 19px;&quot;&gt;&lt;span style=&quot;&quot;&gt;cbit&lt;/span&gt;.&lt;span style=&quot;&quot;&gt;bits&lt;/span&gt;.&lt;span style=&quot;&quot;&gt;canb=1&lt;/span&gt;&lt;/div&gt;&lt;/div&gt;&lt;/div&gt;&lt;div style=&quot;background-color: rgb(255, 255, 255); font-family: Consolas, &amp;quot;Courier New&amp;quot;, monospace; font-size: 14px; line-height: 19px; white-space: pre;&quot;&gt;&lt;div style=&quot;line-height: 19px;&quot;&gt;&lt;span style=&quot;&quot;&gt;cana_recv_timer=0&lt;/span&gt;&lt;/div&gt;&lt;div style=&quot;line-height: 19px;&quot;&gt;&lt;div style=&quot;line-height: 19px;&quot;&gt;&lt;span style=&quot;&quot;&gt;canb_recv_timer=1&lt;/span&gt;&lt;/div&gt;&lt;/div&gt;&lt;/div&gt;&lt;div style=&quot;background-color: rgb(255, 255, 255); font-family: Consolas, &amp;quot;Courier New&amp;quot;, monospace; font-size: 14px; line-height: 19px; white-space: pre;&quot;&gt;&lt;span style=&quot;&quot;&gt;global_bpcu_pos=&lt;/span&gt;&lt;span style=&quot;&quot;&gt;BPCU_1_POS&lt;/span&gt; &lt;/div&gt;&lt;div style=&quot;background-color: rgb(255, 255, 255); font-family: Consolas, &amp;quot;Courier New&amp;quot;, monospace; font-size: 14px; line-height: 19px; white-space: pre;&quot;&gt;&lt;div style=&quot;line-height: 19px;&quot;&gt;&lt;span style=&quot;&quot;&gt;eicu_info_b.&lt;/span&gt;&lt;span style=&quot;&quot;&gt;air_gnd=2&lt;/span&gt;&lt;/div&gt;&lt;div style=&quot;line-height: 19px;&quot;&gt;&lt;div style=&quot;line-height: 19px;&quot;&gt;&lt;span style=&quot;&quot;&gt;ex_digital_status&lt;/span&gt;.&lt;span style=&quot;&quot;&gt;io_input_status&lt;/span&gt;[&lt;span style=&quot;&quot;&gt;1&lt;/span&gt;]=0xFFFF&lt;/div&gt;&lt;div style=&quot;line-height: 19px;&quot;&gt;&lt;div style=&quot;line-height: 19px;&quot;&gt;&lt;span style=&quot;&quot;&gt;air_ground_status=&lt;/span&gt;&lt;span style=&quot;&quot;&gt;AIR_STATUS&lt;/span&gt;&lt;/div&gt;&lt;/div&gt;&lt;/div&gt;&lt;/div&gt;" style="rounded=1;whiteSpace=wrap;html=1;fontColor=default;" parent="1" vertex="1">
          <mxGeometry x="380" y="252.75" width="370" height="177.25" as="geometry" />
        </mxCell>
        <mxCell id="ax4Df50NeEjeW72cWsPZ-26" value="&lt;div style=&quot;background-color: rgb(255, 255, 255); font-family: Consolas, &amp;quot;Courier New&amp;quot;, monospace; font-size: 14px; line-height: 19px; white-space: pre;&quot;&gt;&lt;span style=&quot;font-family: Helvetica; font-size: 12px; white-space: normal; background-color: rgb(251, 251, 251);&quot;&gt;最差执行时间路径条件&lt;/span&gt;&lt;span style=&quot;&quot;&gt;&lt;br&gt;&lt;/span&gt;&lt;/div&gt;&lt;div style=&quot;background-color: rgb(255, 255, 255); font-family: Consolas, &amp;quot;Courier New&amp;quot;, monospace; font-size: 14px; line-height: 19px; white-space: pre;&quot;&gt;&lt;span style=&quot;&quot;&gt;logic_input_bak_status&lt;/span&gt;.&lt;span style=&quot;&quot;&gt;all=0&lt;/span&gt;&lt;/div&gt;" style="rounded=1;whiteSpace=wrap;html=1;fontColor=default;" parent="1" vertex="1">
          <mxGeometry x="380" y="457" width="370" height="52" as="geometry" />
        </mxCell>
        <mxCell id="ax4Df50NeEjeW72cWsPZ-38" value="" style="edgeStyle=orthogonalEdgeStyle;rounded=0;orthogonalLoop=1;jettySize=auto;html=1;fontColor=default;" parent="1" source="ax4Df50NeEjeW72cWsPZ-28" target="ax4Df50NeEjeW72cWsPZ-34" edge="1">
          <mxGeometry relative="1" as="geometry" />
        </mxCell>
        <mxCell id="ax4Df50NeEjeW72cWsPZ-28" value="&lt;div style=&quot;background-color: rgb(255, 255, 255); font-family: Consolas, &amp;quot;Courier New&amp;quot;, monospace; font-weight: normal; font-size: 14px; line-height: 19px; white-space: pre;&quot;&gt;&lt;div&gt;&lt;span style=&quot;&quot;&gt;get_tab&lt;/span&gt;&lt;/div&gt;&lt;/div&gt;&lt;div style=&quot;background-color: rgb(255, 255, 255); font-family: Consolas, &amp;quot;Courier New&amp;quot;, monospace; font-size: 14px; line-height: 19px; white-space: pre;&quot;&gt;&lt;span style=&quot;&quot;&gt;get_ex_digital_status&lt;/span&gt;&lt;/div&gt;&lt;div style=&quot;background-color: rgb(255, 255, 255); font-family: Consolas, &amp;quot;Courier New&amp;quot;, monospace; font-size: 14px; line-height: 19px; white-space: pre;&quot;&gt;&lt;div style=&quot;line-height: 19px;&quot;&gt;&lt;span style=&quot;&quot;&gt;Get_RpduInfo&lt;/span&gt;&lt;/div&gt;&lt;div style=&quot;line-height: 19px;&quot;&gt;&lt;div style=&quot;line-height: 19px;&quot;&gt;&lt;span style=&quot;&quot;&gt;ground_power_115v_valid&lt;/span&gt;&lt;/div&gt;&lt;div style=&quot;line-height: 19px;&quot;&gt;&lt;div style=&quot;line-height: 19px;&quot;&gt;&lt;span style=&quot;&quot;&gt;update_record&lt;/span&gt;&lt;/div&gt;&lt;/div&gt;&lt;/div&gt;&lt;/div&gt;" style="rounded=1;whiteSpace=wrap;html=1;fontColor=default;" parent="1" vertex="1">
          <mxGeometry x="380" y="533.5" width="370" height="122" as="geometry" />
        </mxCell>
        <mxCell id="ax4Df50NeEjeW72cWsPZ-34" value="无影响（无特殊分支）" style="rounded=1;whiteSpace=wrap;html=1;fontColor=default;" parent="1" vertex="1">
          <mxGeometry x="827" y="564.5" width="140" height="60" as="geometry" />
        </mxCell>
        <mxCell id="ax4Df50NeEjeW72cWsPZ-40" value="" style="edgeStyle=orthogonalEdgeStyle;rounded=0;orthogonalLoop=1;jettySize=auto;html=1;fontColor=default;" parent="1" source="ax4Df50NeEjeW72cWsPZ-36" target="ax4Df50NeEjeW72cWsPZ-39" edge="1">
          <mxGeometry relative="1" as="geometry" />
        </mxCell>
        <mxCell id="ax4Df50NeEjeW72cWsPZ-36" value="&lt;div style=&quot;background-color: rgb(255, 255, 255); font-family: Consolas, &amp;quot;Courier New&amp;quot;, monospace; font-size: 14px; line-height: 19px; white-space: pre;&quot;&gt;&lt;span style=&quot;&quot;&gt;get_tab&lt;/span&gt;&lt;/div&gt;&lt;div style=&quot;background-color: rgb(255, 255, 255); font-family: Consolas, &amp;quot;Courier New&amp;quot;, monospace; font-size: 14px; line-height: 19px; white-space: pre;&quot;&gt;&lt;div style=&quot;line-height: 19px;&quot;&gt;&lt;span style=&quot;&quot;&gt;is_connect&lt;/span&gt;&lt;/div&gt;&lt;/div&gt;" style="rounded=1;whiteSpace=wrap;html=1;fontColor=default;" parent="1" vertex="1">
          <mxGeometry x="380" y="684.5" width="370" height="60" as="geometry" />
        </mxCell>
        <mxCell id="ax4Df50NeEjeW72cWsPZ-39" value="无影响（无特殊分支）" style="rounded=1;whiteSpace=wrap;html=1;fontColor=default;" parent="1" vertex="1">
          <mxGeometry x="827" y="684.5" width="140" height="60" as="geometry" />
        </mxCell>
        <mxCell id="ax4Df50NeEjeW72cWsPZ-50" value="" style="edgeStyle=orthogonalEdgeStyle;rounded=0;orthogonalLoop=1;jettySize=auto;html=1;fontColor=default;" parent="1" source="ax4Df50NeEjeW72cWsPZ-41" target="ax4Df50NeEjeW72cWsPZ-49" edge="1">
          <mxGeometry relative="1" as="geometry" />
        </mxCell>
        <mxCell id="ax4Df50NeEjeW72cWsPZ-41" value="&lt;div style=&quot;background-color: rgb(255, 255, 255); font-family: Consolas, &amp;quot;Courier New&amp;quot;, monospace; font-weight: normal; font-size: 14px; line-height: 19px; white-space: pre;&quot;&gt;&lt;div&gt;&lt;div style=&quot;line-height: 19px;&quot;&gt;&lt;div style=&quot;line-height: 19px;&quot;&gt;&lt;span style=&quot;&quot;&gt;is_connect&lt;/span&gt;&lt;/div&gt;&lt;div style=&quot;line-height: 19px;&quot;&gt;&lt;div style=&quot;line-height: 19px;&quot;&gt;&lt;span style=&quot;&quot;&gt;set_lock&lt;/span&gt;&lt;/div&gt;&lt;div style=&quot;line-height: 19px;&quot;&gt;&lt;div style=&quot;line-height: 19px;&quot;&gt;&lt;span style=&quot;&quot;&gt;update_record&lt;/span&gt;&lt;/div&gt;&lt;/div&gt;&lt;/div&gt;&lt;/div&gt;&lt;/div&gt;&lt;/div&gt;" style="rounded=1;whiteSpace=wrap;html=1;fontColor=default;" parent="1" vertex="1">
          <mxGeometry x="380" y="802.75" width="370" height="81.5" as="geometry" />
        </mxCell>
        <mxCell id="ax4Df50NeEjeW72cWsPZ-43" value="&lt;div style=&quot;background-color: rgb(255, 255, 255); font-family: Consolas, &amp;quot;Courier New&amp;quot;, monospace; font-weight: normal; font-size: 14px; line-height: 19px; white-space: pre;&quot;&gt;&lt;div&gt;&lt;div style=&quot;line-height: 19px;&quot;&gt;&lt;span style=&quot;font-family: Helvetica; font-size: 12px; white-space: normal; background-color: rgb(251, 251, 251);&quot;&gt;最差执行时间路径条件&lt;/span&gt;&lt;/div&gt;&lt;/div&gt;&lt;div&gt;&lt;span style=&quot;&quot;&gt;global_cpu_pos=&lt;/span&gt;&lt;span style=&quot;&quot;&gt;CPU_1_POS&lt;/span&gt;&lt;/div&gt;&lt;/div&gt;&lt;div style=&quot;background-color: rgb(255, 255, 255); font-family: Consolas, &amp;quot;Courier New&amp;quot;, monospace; font-size: 14px; line-height: 19px; white-space: pre;&quot;&gt;eicu_info_b.lpdu_center_bar_auto=2&lt;br&gt;&lt;/div&gt;&lt;div style=&quot;background-color: rgb(255, 255, 255); font-family: Consolas, &amp;quot;Courier New&amp;quot;, monospace; font-size: 14px; line-height: 19px; white-space: pre;&quot;&gt;&lt;div style=&quot;line-height: 19px;&quot;&gt;&lt;span style=&quot;&quot;&gt;power_output&lt;/span&gt;.&lt;span style=&quot;&quot;&gt;all=0xFFFF&lt;/span&gt;&lt;/div&gt;&lt;div style=&quot;line-height: 19px;&quot;&gt;&lt;div style=&quot;line-height: 19px;&quot;&gt;&lt;span style=&quot;&quot;&gt;power_output_loopback&lt;/span&gt;.&lt;span style=&quot;&quot;&gt;all=0&lt;/span&gt;&lt;/div&gt;&lt;/div&gt;&lt;/div&gt;" style="rounded=1;whiteSpace=wrap;html=1;fontColor=default;" parent="1" vertex="1">
          <mxGeometry x="380" y="942.37" width="370" height="120.25" as="geometry" />
        </mxCell>
        <mxCell id="ax4Df50NeEjeW72cWsPZ-45" value="无影响（无特殊分支）" style="rounded=1;whiteSpace=wrap;html=1;fontColor=default;" parent="1" vertex="1">
          <mxGeometry x="375" y="1263.75" width="375" height="67.5" as="geometry" />
        </mxCell>
        <mxCell id="ax4Df50NeEjeW72cWsPZ-49" value="无影响（无特殊分支）" style="rounded=1;whiteSpace=wrap;html=1;fontColor=default;" parent="1" vertex="1">
          <mxGeometry x="827" y="813.5" width="140" height="60" as="geometry" />
        </mxCell>
        <mxCell id="ax4Df50NeEjeW72cWsPZ-54" value="" style="edgeStyle=orthogonalEdgeStyle;rounded=0;orthogonalLoop=1;jettySize=auto;html=1;fontColor=default;" parent="1" source="ax4Df50NeEjeW72cWsPZ-51" target="ax4Df50NeEjeW72cWsPZ-53" edge="1">
          <mxGeometry relative="1" as="geometry" />
        </mxCell>
        <mxCell id="ax4Df50NeEjeW72cWsPZ-51" value="&lt;div style=&quot;background-color: rgb(255, 255, 255); font-family: Consolas, &amp;quot;Courier New&amp;quot;, monospace; font-weight: normal; font-size: 14px; line-height: 19px; white-space: pre;&quot;&gt;&lt;div&gt;&lt;span style=&quot;&quot;&gt;get_eicu_info&lt;/span&gt;&lt;/div&gt;&lt;/div&gt;&lt;div style=&quot;background-color: rgb(255, 255, 255); font-family: Consolas, &amp;quot;Courier New&amp;quot;, monospace; font-size: 14px; line-height: 19px; white-space: pre;&quot;&gt;&lt;span style=&quot;&quot;&gt;delay_condition_satisfied&lt;/span&gt;&lt;/div&gt;&lt;div style=&quot;background-color: rgb(255, 255, 255); font-family: Consolas, &amp;quot;Courier New&amp;quot;, monospace; font-size: 14px; line-height: 19px; white-space: pre;&quot;&gt;&lt;div style=&quot;line-height: 19px;&quot;&gt;&lt;span style=&quot;&quot;&gt;set_lock&lt;/span&gt;&lt;/div&gt;&lt;div style=&quot;line-height: 19px;&quot;&gt;&lt;div style=&quot;line-height: 19px;&quot;&gt;&lt;span style=&quot;&quot;&gt;update_record&lt;/span&gt;&lt;/div&gt;&lt;/div&gt;&lt;/div&gt;" style="rounded=1;whiteSpace=wrap;html=1;fontColor=default;" parent="1" vertex="1">
          <mxGeometry x="375" y="1120" width="370" height="95" as="geometry" />
        </mxCell>
        <mxCell id="ax4Df50NeEjeW72cWsPZ-53" value="无影响（无特殊分支）" style="rounded=1;whiteSpace=wrap;html=1;fontColor=default;" parent="1" vertex="1">
          <mxGeometry x="827" y="1137.5" width="140" height="60" as="geometry" />
        </mxCell>
      </root>
    </mxGraphModel>
  </diagram>
</mxfile>
